<?xml version="1.0" encoding="iso-8859-1"?>
<!-- Generator: Adobe Illustrator 18.0.0, SVG Export Plug-In . SVG Version: 6.00 Build 0)  -->
<!DOCTYPE svg PUBLIC "-//W3C//DTD SVG 1.1//EN" "http://www.w3.org/Graphics/SVG/1.1/DTD/svg11.dtd">
<svg version="1.1" id="Capa_1" xmlns="http://www.w3.org/2000/svg" xmlns:xlink="http://www.w3.org/1999/xlink" x="0px" y="0px"
	 viewBox="0 0 376 376" style="enable-background:new 0 0 376 376;" xml:space="preserve" fill="white">
<g>
	<path d="M366,341H20V25c0-5.523-4.477-10-10-10S0,19.477,0,25v326c0,5.523,4.477,10,10,10h356c5.523,0,10-4.477,10-10
		S371.523,341,366,341z"/>
	<path d="M29.258,314.75c-0.552,0-1,0.448-1,1s0.448,1,1,1h16.245c0.018,2.487,2.037,4.5,4.528,4.5h63.438
		c2.491,0,4.511-2.013,4.528-4.5h37.506c0.018,2.487,2.037,4.5,4.528,4.5h63.438c2.491,0,4.511-2.013,4.528-4.5h37.506
		c0.018,2.487,2.037,4.5,4.528,4.5h63.438c2.491,0,4.511-2.013,4.528-4.5h8.745c0.552,0,1-0.448,1-1s-0.448-1-1-1H338v-58h8.742
		c0.552,0,1-0.448,1-1c0-0.552-0.448-1-1-1H338v-58h8.742c0.552,0,1-0.448,1-1s-0.448-1-1-1H338v-32.094
		c0-2.502-2.029-4.531-4.531-4.531h-63.438c-2.502,0-4.531,2.029-4.531,4.531v32.094H228v-58h118.742c0.552,0,1-0.448,1-1
		s-0.448-1-1-1H228v-58h118.742c0.552,0,1-0.448,1-1s-0.448-1-1-1H228V52.656c0-2.502-2.029-4.531-4.531-4.531h-63.438
		c-2.502,0-4.531,2.029-4.531,4.531V74.75H29.258c-0.552,0-1,0.448-1,1s0.448,1,1,1H155.5v58H29.258c-0.552,0-1,0.448-1,1
		s0.448,1,1,1H155.5v58H118v-32.094c0-2.502-2.029-4.531-4.531-4.531H50.031c-2.502,0-4.531,2.029-4.531,4.531v32.094H29.258
		c-0.552,0-1,0.448-1,1s0.448,1,1,1H45.5v58H29.258c-0.552,0-1,0.448-1,1c0,0.552,0.448,1,1,1H45.5v58H29.258z M265.5,314.75H228
		v-58h37.5V314.75z M265.5,196.75v58H228v-58H265.5z M118,196.75h37.5v58H118V196.75z M118,256.75h37.5v58H118V256.75z"/>
</g>
<g>
</g>
<g>
</g>
<g>
</g>
<g>
</g>
<g>
</g>
<g>
</g>
<g>
</g>
<g>
</g>
<g>
</g>
<g>
</g>
<g>
</g>
<g>
</g>
<g>
</g>
<g>
</g>
<g>
</g>
</svg>
