<?xml version="1.0" encoding="iso-8859-1"?>
<!-- Generator: Adobe Illustrator 16.0.0, SVG Export Plug-In . SVG Version: 6.00 Build 0)  -->
<!DOCTYPE svg PUBLIC "-//W3C//DTD SVG 1.1//EN" "http://www.w3.org/Graphics/SVG/1.1/DTD/svg11.dtd">
<svg version="1.1" id="Capa_1" xmlns="http://www.w3.org/2000/svg" xmlns:xlink="http://www.w3.org/1999/xlink" x="0px" y="0px"
	 width="81.751px" height="81.751px" viewBox="0 0 81.751 81.751" style="enable-background:new 0 0 81.751 81.751;"
	 xml:space="preserve" fill="white">
<g>
	<path d="M42.915,47.213c13.017,0,23.608-10.587,23.608-23.605C66.523,10.588,55.932,0,42.915,0
		c-13.019,0-23.61,10.588-23.61,23.608C19.305,36.626,29.896,47.213,42.915,47.213z M25.044,16.33
		c5.312-0.479,27.158-4.866,28.155-7.842c0.769,5.4,4.817,13.048,8.936,16.823c-0.867,9.847-9.147,17.603-19.222,17.603
		c-10.649,0-19.308-8.664-19.308-19.308C23.608,21.031,24.124,18.579,25.044,16.33z M75.736,61.279v20.473H10.091V61.279
		c0-3.399,0.934-6.57,2.541-9.305c2.742,3.195,6.557,4.979,10.434,4.715c2.144-0.146,4.13-0.929,5.707-2.222
		c0.208-0.144,0.593-0.401,0.899-0.78c0.757-0.871,1.241-1.82,1.673-2.65c0.179-0.35,0.362-0.703,0.572-1.05
		c0.26-0.429,0.547-1.145,0.474-2.096c3.23,1.402,6.783,2.192,10.525,2.192c6.849,0,13.076-2.633,17.78-6.917
		C69.254,44.761,75.736,52.257,75.736,61.279z M13.59,48.475c-1.25-2.056-2.432-4.149-3.558-6.28h-0.01
		c-0.027-0.055-0.049-0.114-0.076-0.171c-0.031-0.055-0.064-0.111-0.094-0.169l0.007-0.007c-1.043-2.168-2.03-4.363-2.938-6.597
		C4.543,29.419,7.07,23.467,11.88,22.261c0.208-0.064,0.411-0.157,0.618-0.178c1.273-0.096,2.563,0.283,3.838,0.395
		c1.628,0.147,2.287,8.086,0.198,8.073c-0.771-0.009-3.087-0.404-3.821-0.156c-0.646,0.219-0.717,1.258-0.403,2.031
		c0.827,2.035,2.231,4.459,3.29,6.531l0.004-0.007c0.029,0.059,0.054,0.117,0.082,0.18c0.032,0.054,0.063,0.116,0.089,0.169
		l-0.002,0.004c1.035,2.076,2.153,4.649,3.297,6.529c0.435,0.704,1.312,1.271,1.876,0.878c0.631-0.44,1.689-2.53,2.14-3.164
		c1.226-1.684,7.222,3.559,6.375,4.959c-0.666,1.091-1.124,2.341-1.962,3.308c-0.138,0.174-0.338,0.27-0.507,0.401
		C23.161,55.364,16.874,53.861,13.59,48.475z"/>
</g>
<g>
</g>
<g>
</g>
<g>
</g>
<g>
</g>
<g>
</g>
<g>
</g>
<g>
</g>
<g>
</g>
<g>
</g>
<g>
</g>
<g>
</g>
<g>
</g>
<g>
</g>
<g>
</g>
<g>
</g>
</svg>
